P3
25 25
255
243 0 192 243 0 192 243 0 192 243 0 192 243 0 192 243 0 192 54 248 4 54 248 4 54 248 4 54 248 4 54 248 4 54 248 4 54 248 4 54 248 4 54 248 4 54 248 4 54 248 4 54 248 4 54 248 4 243 0 192 243 0 192 243 0 192 243 0 192 243 0 192 243 0 192 
243 0 192 243 0 192 243 0 192 243 0 192 243 0 192 243 0 192 54 248 4 54 248 4 54 248 4 54 248 4 54 248 4 54 248 4 54 248 4 54 248 4 54 248 4 54 248 4 54 248 4 54 248 4 54 248 4 243 0 192 243 0 192 243 0 192 243 0 192 243 0 192 243 0 192 
243 0 192 243 0 192 243 0 192 243 0 192 243 0 192 243 0 192 54 248 4 54 248 4 54 248 4 54 248 4 54 248 4 54 248 4 54 248 4 54 248 4 54 248 4 54 248 4 54 248 4 54 248 4 54 248 4 243 0 192 243 0 192 243 0 192 243 0 192 243 0 192 243 0 192 
243 0 192 243 0 192 243 0 192 243 0 192 243 0 192 243 0 192 54 248 4 54 248 4 54 248 4 54 248 4 54 248 4 54 248 4 54 248 4 54 248 4 54 248 4 54 248 4 54 248 4 54 248 4 54 248 4 243 0 192 243 0 192 243 0 192 243 0 192 243 0 192 243 0 192 
243 0 192 243 0 192 243 0 192 243 0 192 243 0 192 243 0 192 243 0 192 54 248 4 54 248 4 54 248 4 54 248 4 54 248 4 54 248 4 54 248 4 54 248 4 54 248 4 54 248 4 54 248 4 243 0 192 243 0 192 243 0 192 243 0 192 243 0 192 243 0 192 243 0 192 
243 0 192 243 0 192 243 0 192 243 0 192 243 0 192 243 0 192 243 0 192 54 248 4 54 248 4 54 248 4 54 248 4 54 248 4 54 248 4 54 248 4 54 248 4 54 248 4 54 248 4 54 248 4 243 0 192 243 0 192 243 0 192 243 0 192 243 0 192 243 0 192 243 0 192 
243 0 192 243 0 192 243 0 192 243 0 192 243 0 192 243 0 192 243 0 192 243 0 192 54 248 4 54 248 4 54 248 4 54 248 4 54 248 4 54 248 4 54 248 4 54 248 4 54 248 4 243 0 192 243 0 192 243 0 192 243 0 192 243 0 192 243 0 192 243 0 192 243 0 192 
243 0 192 243 0 192 243 0 192 243 0 192 243 0 192 243 0 192 243 0 192 243 0 192 243 0 192 54 248 4 54 248 4 54 248 4 54 248 4 54 248 4 54 248 4 54 248 4 243 0 192 243 0 192 243 0 192 243 0 192 243 0 192 243 0 192 243 0 192 243 0 192 243 0 192 
243 0 192 243 0 192 243 0 192 243 0 192 243 0 192 243 0 192 243 0 192 243 0 192 243 0 192 243 0 192 243 0 192 243 0 192 243 0 192 243 0 192 243 0 192 243 0 192 243 0 192 243 0 192 243 0 192 243 0 192 243 0 192 243 0 192 243 0 192 243 0 192 243 0 192 
243 0 192 243 0 192 243 0 192 243 0 192 243 0 192 243 0 192 243 0 192 243 0 192 243 0 192 243 0 192 243 0 192 243 0 192 243 0 192 243 0 192 243 0 192 243 0 192 243 0 192 243 0 192 243 0 192 243 0 192 243 0 192 243 0 192 243 0 192 243 0 192 243 0 192 
243 0 192 243 0 192 243 0 192 243 0 192 243 0 192 243 0 192 243 0 192 243 0 192 243 0 192 243 0 192 243 0 192 243 0 192 243 0 192 243 0 192 243 0 192 243 0 192 243 0 192 243 0 192 243 0 192 243 0 192 243 0 192 243 0 192 243 0 192 243 0 192 243 0 192 
243 0 192 243 0 192 243 0 192 243 0 192 243 0 192 243 0 192 243 0 192 243 0 192 243 0 192 243 0 192 243 0 192 243 0 192 243 0 192 243 0 192 243 0 192 243 0 192 243 0 192 243 0 192 243 0 192 243 0 192 243 0 192 243 0 192 243 0 192 243 0 192 243 0 192 
243 0 192 243 0 192 243 0 192 243 0 192 243 0 192 243 0 192 243 0 192 243 0 192 243 0 192 243 0 192 243 0 192 243 0 192 243 0 192 243 0 192 243 0 192 243 0 192 243 0 192 14 0 253 14 0 253 14 0 253 14 0 253 243 0 192 243 0 192 243 0 192 243 0 192 
243 0 192 243 0 192 243 0 192 243 0 192 243 0 192 243 0 192 243 0 192 243 0 192 243 0 192 243 0 192 243 0 192 243 0 192 243 0 192 243 0 192 243 0 192 14 0 253 14 0 253 14 0 253 14 0 253 14 0 253 14 0 253 14 0 253 14 0 253 243 0 192 243 0 192 
243 0 192 243 0 192 243 0 192 243 0 192 243 0 192 243 0 192 243 0 192 243 0 192 243 0 192 243 0 192 243 0 192 243 0 192 243 0 192 243 0 192 14 0 253 14 0 253 14 0 253 14 0 253 14 0 253 14 0 253 14 0 253 14 0 253 14 0 253 14 0 253 243 0 192 
243 0 192 243 0 192 243 0 192 243 0 192 243 0 192 243 0 192 243 0 192 243 0 192 243 0 192 243 0 192 243 0 192 243 0 192 243 0 192 243 0 192 14 0 253 14 0 253 14 0 253 14 0 253 14 0 253 14 0 253 14 0 253 14 0 253 14 0 253 14 0 253 14 0 253 
243 0 192 243 0 192 243 0 192 243 0 192 243 0 192 243 0 192 243 0 192 243 0 192 243 0 192 243 0 192 243 0 192 243 0 192 243 0 192 14 0 253 14 0 253 14 0 253 14 0 253 14 0 253 14 0 253 14 0 253 14 0 253 14 0 253 14 0 253 14 0 253 14 0 253 
243 0 192 243 0 192 243 0 192 243 0 192 243 0 192 243 0 192 243 0 192 243 0 192 243 0 192 243 0 192 243 0 192 243 0 192 243 0 192 14 0 253 14 0 253 14 0 253 14 0 253 14 0 253 14 0 253 14 0 253 14 0 253 14 0 253 14 0 253 14 0 253 14 0 253 
243 0 192 243 0 192 243 0 192 243 0 192 243 0 192 243 0 192 243 0 192 243 0 192 243 0 192 243 0 192 243 0 192 243 0 192 243 0 192 14 0 253 14 0 253 14 0 253 14 0 253 14 0 253 14 0 253 14 0 253 14 0 253 14 0 253 14 0 253 14 0 253 14 0 253 
243 0 192 243 0 192 243 0 192 243 0 192 243 0 192 243 0 192 243 0 192 243 0 192 243 0 192 243 0 192 243 0 192 243 0 192 243 0 192 14 0 253 14 0 253 14 0 253 14 0 253 14 0 253 14 0 253 14 0 253 14 0 253 14 0 253 14 0 253 14 0 253 14 0 253 
243 0 192 243 0 192 243 0 192 243 0 192 243 0 192 243 0 192 243 0 192 243 0 192 243 0 192 243 0 192 243 0 192 243 0 192 243 0 192 14 0 253 14 0 253 14 0 253 14 0 253 14 0 253 14 0 253 14 0 253 14 0 253 14 0 253 14 0 253 14 0 253 14 0 253 
243 0 192 243 0 192 243 0 192 243 0 192 243 0 192 243 0 192 243 0 192 243 0 192 243 0 192 243 0 192 243 0 192 243 0 192 243 0 192 14 0 253 14 0 253 14 0 253 14 0 253 14 0 253 14 0 253 14 0 253 14 0 253 14 0 253 14 0 253 14 0 253 14 0 253 
243 0 192 243 0 192 243 0 192 243 0 192 243 0 192 243 0 192 243 0 192 243 0 192 243 0 192 243 0 192 243 0 192 243 0 192 243 0 192 14 0 253 14 0 253 14 0 253 14 0 253 14 0 253 14 0 253 14 0 253 14 0 253 14 0 253 14 0 253 14 0 253 14 0 253 
243 0 192 243 0 192 243 0 192 243 0 192 243 0 192 243 0 192 243 0 192 243 0 192 243 0 192 243 0 192 243 0 192 243 0 192 243 0 192 14 0 253 14 0 253 14 0 253 14 0 253 14 0 253 14 0 253 14 0 253 14 0 253 14 0 253 14 0 253 14 0 253 14 0 253 
243 0 192 243 0 192 243 0 192 243 0 192 243 0 192 243 0 192 243 0 192 243 0 192 243 0 192 243 0 192 243 0 192 243 0 192 243 0 192 14 0 253 14 0 253 14 0 253 14 0 253 14 0 253 14 0 253 14 0 253 14 0 253 14 0 253 14 0 253 14 0 253 14 0 253 
